<svg xmlns="http://www.w3.org/2000/svg" width="2500" height="1186" viewBox="72.424 42.569 339.041 160.792"><path d="M108.783 100.639V55.192c0-1.684.168-2.694 3.031-2.694h38.545c6.734 0 10.437 5.724 13.131 16.496l2.188 8.586h6.564c1.177-24.406 2.186-35.011 2.186-35.011s-16.495 1.851-26.258 1.851H98.854l-26.431-.842v7.07l8.923 1.683c6.228 1.179 7.74 2.524 8.249 8.249 0 0 .506 16.832.506 44.607 0 27.771-.506 44.437-.506 44.437 0 5.049-2.021 6.9-8.249 8.082l-8.923 1.684v7.066l26.431-.84h44.101c9.931 0 32.991.84 32.991.84.503-6.061 3.872-33.498 4.377-36.524h-6.228l-6.565 14.981c-5.219 11.78-12.792 12.623-21.21 12.623h-25.082c-8.417 0-12.457-3.367-12.457-10.604v-38.379s18.347 0 24.742.506c4.714.338 7.574 1.684 9.091 8.248l2.021 8.753h7.234l-.503-22.053 1.009-22.217h-7.236l-2.355 9.762c-1.517 6.396-2.525 7.577-9.091 8.248-7.405.844-24.913.675-24.913.675v.167h.003v-.003zM208.599 59.906c-2.357 10.436-4.714 18.515-12.962 23.902-5.049 3.365-10.1 4.542-12.117 4.711v6.396h14.98v51.675c0 14.478 9.596 21.549 22.387 21.549 9.932 0 20.198-4.208 23.734-12.963l-3.536-4.545c-1.684 2.863-7.067 7.07-13.801 7.07-7.405 0-11.445-5.051-11.445-17.841V94.245l24.914 1.853 1.345-11.449-26.258 1.011V60.073l-7.241-.167zM261.791 139.39l-6.396.168c.336 3.702.506 8.417.506 12.793 0 4.545-.168 8.753-.506 10.772 0 0 12.793 4.709 25.754 4.709 17.506 0 31.478-8.416 31.478-24.912 0-28.275-42.418-24.066-42.418-43.09 0-7.91 7.069-10.941 14.812-10.941 6.06 0 11.109 2.188 12.119 5.389l4.209 12.624 6.229-.336c.506-6.734.841-14.477 1.852-20.704-5.388-2.357-16.667-3.706-23.731-3.706-16.5 0-29.795 7.239-29.795 23.399 0 28.109 41.406 22.386 41.406 43.093 0 7.403-4.547 12.622-14.812 12.622-9.424 0-14.139-4.88-15.987-9.764l-4.72-12.116zM363.244 158.836c-9.745 27.221-21.674 34.273-32.426 34.273-4.539 0-6.721-2.018-7.396-5.205l-2.52-13.109-7.058.336c-1.344 7.73-2.688 16.302-4.534 23.357 4.201 3.188 11.254 4.872 16.801 4.872 11.596 0 29.236-1.515 45.363-39.821l27.053-63.845c2.186-5.21 3.023-5.714 9.408-8.236l3.529-1.341v-5.881l-15.963.84-17.137-.84v5.881l4.366 1.341c4.367 1.347 6.387 3.026 6.387 6.051 0 1.511-.506 3.024-1.348 5.374-2.52 6.389-18.146 44.359-22.342 52.426l4.195-1.515c-7.394-18.313-18.646-48.895-20.328-54.099-.336-1.009-.504-1.849-.504-2.693 0-2.687 1.848-4.872 5.881-5.711l5.545-1.173v-5.881l-23.021.84-18.313-.84v5.881l3.025 1.007c4.2 1.344 5.209 2.521 7.729 8.401 13.941 31.925 20.498 49.396 29.399 72.249l4.209-12.939z" fill="#f27224"/></svg>